<?xml version="1.0" standalone="no"?>
<!DOCTYPE svg PUBLIC "-//W3C//DTD SVG 20010904//EN"
 "http://www.w3.org/TR/2001/REC-SVG-20010904/DTD/svg10.dtd">
<svg version="1.0" xmlns="http://www.w3.org/2000/svg"
 width="310.000000pt" height="310.000000pt" viewBox="0 0 310.000000 310.000000"
 preserveAspectRatio="xMidYMid meet">

<g transform="translate(0.000000,310.000000) scale(0.100000,-0.100000)"
fill="#000000" stroke="none">
<path d="M1059 3033 c-37 -76 -49 -168 -30 -225 26 -79 125 -133 264 -144 160
-14 247 54 247 192 0 51 -23 128 -44 149 -9 9 -16 24 -16 34 0 20 -43 64 -53
54 -4 -3 -7 -40 -7 -82 0 -140 -21 -171 -118 -171 -62 0 -116 16 -148 43 -26
23 -26 24 -17 102 11 100 8 115 -22 115 -20 0 -30 -12 -56 -67z"/>
<path d="M1749 3090 c-89 -27 -145 -133 -120 -226 47 -176 281 -216 352 -60
52 115 -14 254 -137 285 -48 12 -58 13 -95 1z m115 -58 c20 4 26 1 28 -16 2
-12 13 -25 25 -31 15 -6 21 -18 21 -37 -1 -15 5 -35 12 -43 11 -14 11 -18 1
-25 -9 -5 -12 -20 -9 -38 4 -26 1 -32 -16 -34 -13 -2 -22 -12 -24 -26 -3 -18
-8 -21 -28 -16 -16 4 -31 1 -43 -10 -16 -15 -19 -15 -31 -1 -7 8 -23 15 -35
15 -13 0 -30 11 -39 25 -9 14 -23 25 -32 25 -11 0 -13 6 -9 20 4 12 0 31 -9
44 -10 17 -12 26 -4 34 6 6 11 24 10 41 0 21 5 30 19 34 11 3 23 15 26 26 4
16 11 19 28 15 14 -3 28 0 36 9 12 13 16 13 31 0 10 -9 28 -13 42 -11z"/>
<path d="M650 2889 c-87 -26 -148 -112 -135 -194 13 -93 102 -165 201 -165
108 1 185 68 192 168 3 50 0 63 -27 104 -47 74 -147 111 -231 87z m154 -66
c12 5 16 0 16 -18 0 -14 8 -29 20 -35 15 -8 19 -17 14 -36 -3 -13 -1 -31 5
-38 10 -11 8 -16 -5 -24 -9 -5 -16 -21 -16 -36 0 -18 -6 -26 -19 -26 -9 0 -25
-8 -35 -17 -20 -20 -100 -24 -116 -6 -6 7 -20 13 -32 13 -15 0 -25 9 -33 30
-6 17 -17 30 -25 30 -17 0 -18 80 0 98 6 7 12 22 12 33 0 10 7 19 15 19 8 0
23 8 33 18 13 13 29 18 49 15 17 -3 34 0 37 6 5 7 17 4 36 -10 16 -12 36 -19
44 -16z"/>
<path d="M2232 2809 c-67 -13 -160 -59 -192 -95 -78 -89 -51 -233 70 -367 50
-57 91 -77 151 -77 80 0 166 75 219 191 20 44 27 99 13 99 -5 0 -44 -27 -87
-60 -44 -33 -89 -60 -101 -60 -60 0 -144 106 -145 184 0 32 6 44 38 73 20 19
51 41 67 49 17 8 41 23 55 34 21 17 23 21 10 30 -17 11 -38 11 -98 -1z"/>
<path d="M1640 2710 c0 -44 -7 -113 -16 -151 -15 -64 -15 -73 1 -104 19 -42
27 -43 53 -8 20 27 42 25 42 -5 0 -9 5 -24 10 -32 8 -13 14 -11 35 13 14 15
31 27 38 27 7 0 20 30 30 68 10 37 31 94 46 127 16 33 28 61 27 62 -1 1 -20
-3 -42 -9 -57 -16 -122 4 -179 54 l-45 40 0 -82z m110 -97 c46 -12 59 -20 56
-32 -3 -9 -8 -33 -12 -53 -3 -21 -12 -38 -18 -38 -27 0 -116 31 -116 41 0 16
22 99 26 99 3 0 31 -8 64 -17z"/>
<path d="M1114 2678 c46 -65 101 -166 125 -229 14 -39 30 -72 36 -72 15 -3 32
53 18 61 -6 4 -15 30 -21 59 l-9 52 46 7 c89 12 85 14 96 -41 5 -27 15 -56 22
-63 7 -7 13 -18 13 -23 0 -5 5 -9 11 -9 7 0 8 23 4 68 -5 49 -3 86 9 131 9 34
16 65 16 67 0 2 -12 -4 -27 -13 -42 -28 -219 -25 -293 5 -67 27 -66 27 -46 0z"/>
<path d="M910 2638 c0 -22 -52 -78 -90 -98 -22 -11 -59 -20 -85 -20 -25 0 -45
-2 -45 -5 0 -3 19 -22 42 -43 23 -20 60 -56 82 -79 21 -24 45 -43 53 -43 7 0
13 -9 13 -21 0 -20 88 -144 96 -136 3 2 0 16 -6 31 -7 21 -7 28 4 32 8 3 16
14 19 24 8 31 51 46 85 29 15 -7 30 -15 35 -17 4 -2 7 8 7 21 0 15 -24 58 -60
107 -34 44 -77 115 -98 156 -34 69 -52 91 -52 62z m69 -174 c18 -25 32 -46 30
-48 -19 -14 -112 -66 -113 -64 -1 2 -14 20 -30 41 -15 21 -26 42 -24 47 3 9
87 68 99 69 3 1 20 -20 38 -45z"/>
<path d="M1949 2457 c-19 -59 -33 -107 -32 -107 2 0 15 7 28 16 28 18 49 10
42 -17 -7 -24 19 -47 35 -31 7 7 20 12 29 12 15 0 17 -6 12 -36 l-6 -36 42 7
c45 7 53 -5 26 -41 -17 -22 -20 -12 -5 17 12 22 7 24 -21 9 -18 -10 -17 -13
15 -60 78 -113 99 -246 62 -375 -10 -33 -89 -197 -176 -365 -88 -168 -168
-326 -180 -352 -22 -52 -33 -57 -67 -33 -44 31 -398 185 -425 185 -10 0 -18 4
-18 8 0 14 -69 42 -76 31 -7 -12 -123 -69 -140 -69 -20 0 -27 -20 -12 -37 11
-14 11 -16 -2 -11 -8 2 -24 19 -35 38 -11 18 -41 56 -66 84 -26 28 -56 71 -69
95 -27 54 -30 133 -7 180 22 44 13 79 -21 83 -23 3 -28 9 -33 43 -14 82 19
175 62 175 21 0 43 35 35 56 -7 19 -33 18 -45 -3 -9 -16 -10 -16 -11 4 0 19
51 73 70 73 4 0 10 13 13 28 8 40 77 113 136 146 65 35 145 45 188 23 38 -20
83 -72 83 -97 0 -11 10 -24 23 -31 12 -6 39 -27 60 -47 20 -20 37 -31 37 -26
0 6 -9 19 -20 29 -22 20 -18 35 11 35 10 0 19 4 19 9 0 8 60 137 84 178 7 13
21 32 32 44 18 20 18 21 -1 35 -18 13 -17 14 10 14 16 0 39 -9 51 -21 22 -21
23 -21 90 -4 63 16 103 15 170 -1 17 -4 22 0 26 20 6 32 0 39 -19 20 -24 -24
-57 -14 -61 19 -4 31 -9 33 -33 11 -25 -22 -59 -10 -59 22 0 30 -13 31 -33 2
-12 -19 -19 -21 -34 -12 -10 6 -19 21 -21 33 -4 26 -18 27 -32 1 -15 -28 -48
-25 -62 5 -14 31 -20 31 -33 3 -6 -13 -19 -23 -30 -23 -11 0 -24 10 -30 23
-13 29 -23 28 -31 -3 -8 -31 -48 -34 -66 -5 -17 27 -24 25 -31 -10 -8 -37 -45
-41 -67 -7 l-14 22 -6 -29 c-8 -44 -34 -55 -64 -27 l-25 23 -3 -33 c-2 -29 -7
-35 -31 -37 -18 -2 -29 2 -33 12 -10 27 -27 18 -21 -12 10 -50 -8 -61 -64 -38
-13 6 -15 1 -11 -23 5 -37 -16 -49 -54 -32 -24 11 -25 10 -22 -27 3 -37 3 -37
-35 -36 -32 1 -37 -1 -31 -15 4 -9 7 -25 8 -36 1 -17 -5 -20 -36 -19 -41 1
-47 -6 -23 -26 33 -28 1 -65 -46 -53 l-24 6 23 -25 c12 -13 22 -27 22 -30 0
-16 -34 -38 -58 -38 l-27 0 24 -19 c31 -24 25 -55 -12 -59 -32 -4 -34 -13 -7
-30 29 -18 25 -42 -10 -55 l-30 -11 27 -22 c30 -24 26 -54 -7 -54 -24 0 -26
-13 -4 -31 10 -8 14 -22 11 -38 -3 -16 2 -34 13 -49 21 -26 17 -48 -11 -57
-27 -9 -24 -25 5 -25 13 0 29 -7 36 -15 11 -13 9 -20 -9 -38 -27 -30 -27 -35
3 -30 17 4 27 -1 35 -16 9 -16 7 -24 -11 -41 l-22 -20 30 0 c41 0 58 -13 49
-39 -3 -11 -11 -21 -16 -21 -5 0 -9 -5 -9 -11 0 -6 14 -9 31 -7 44 4 61 -22
34 -53 l-20 -22 32 6 c51 10 65 0 57 -39 -6 -34 -6 -35 20 -23 22 10 29 10 42
-3 13 -13 14 -20 4 -38 -11 -21 -11 -22 11 -16 52 16 64 13 67 -21 3 -30 4
-31 29 -18 34 18 53 9 53 -26 0 -32 11 -37 30 -14 19 23 54 15 58 -12 4 -27
14 -29 32 -8 21 25 47 18 60 -17 l12 -33 15 22 c17 26 63 32 63 9 0 -25 21
-29 36 -7 20 28 38 27 63 -5 l20 -26 7 25 c9 39 54 46 68 11 8 -21 24 -17 28
9 4 32 52 36 69 5 12 -22 11 -23 -8 -6 -28 25 -37 23 -50 -13 -12 -31 -14 -32
-58 -26 -27 4 -45 3 -45 -3 0 -16 -22 -12 -35 7 -8 11 -5 -15 8 -73 12 -54 20
-129 21 -191 1 -101 1 -102 21 -83 51 48 144 63 212 35 20 -8 38 -14 39 -12 2
2 -5 21 -15 43 -44 90 -89 268 -77 306 2 7 7 25 10 41 7 31 26 34 61 11 25
-16 25 -16 25 15 0 28 3 31 29 31 17 0 33 -4 36 -10 13 -21 25 -9 23 23 -3 28
0 32 22 31 14 0 32 -3 40 -5 11 -3 14 3 12 19 -5 35 14 53 44 42 21 -8 24 -7
24 13 0 31 18 47 52 47 25 0 27 2 17 19 -19 30 -4 51 36 51 l35 0 -17 26 c-16
25 -16 27 2 40 10 8 30 14 44 14 l25 0 -22 20 c-12 12 -22 23 -22 25 0 13 36
35 57 35 l26 0 -23 24 c-27 30 -21 56 14 56 35 0 40 15 11 28 -14 7 -25 16
-25 21 0 15 30 41 46 41 8 0 14 5 14 10 0 6 -7 10 -15 10 -8 0 -20 10 -26 22
-10 18 -8 24 7 35 10 7 24 13 31 13 24 0 14 15 -18 27 -26 10 -29 14 -20 32 6
11 20 23 31 26 26 8 16 25 -16 25 -19 0 -24 5 -24 25 0 14 8 29 20 35 29 16
25 30 -9 30 -40 0 -48 17 -22 44 26 28 27 39 2 31 -11 -3 -26 1 -35 11 -15 15
-15 18 -1 40 19 30 19 33 -2 28 -10 -3 -27 2 -38 10 -17 13 -18 18 -7 35 14
23 16 34 5 28 -5 -3 -19 -1 -32 4 -20 8 -23 14 -18 44 5 32 4 33 -17 25 -25
-9 -52 2 -42 18 3 6 27 18 51 28 l46 17 -51 29 c-75 43 -161 163 -179 251 -6
26 -11 17 -42 -76z m-391 -159 c4 -36 -42 -87 -90 -97 -94 -21 -186 43 -130
91 30 26 74 37 147 35 68 -2 70 -3 73 -29z m-70 -171 c4 -22 -27 -35 -38 -16
-10 15 7 42 24 36 6 -2 12 -11 14 -20z m758 -324 c-9 -62 -9 -69 -1 -129 16
-112 -57 -238 -154 -264 -34 -9 -91 -6 -91 6 0 1 30 58 67 126 37 68 81 157
98 199 20 48 35 74 44 71 7 -2 15 5 18 17 11 42 26 22 19 -26z m-148 -455 c7
-7 12 -20 12 -30 0 -26 -72 -101 -124 -129 -37 -19 -47 -21 -60 -10 -36 30 0
136 55 167 30 17 101 18 117 2z m-791 -148 c47 -28 68 -74 52 -112 -11 -27
-15 -29 -48 -23 -134 25 -204 83 -153 127 37 33 102 37 149 8z m283 -73 c139
-67 144 -70 115 -79 -16 -5 -64 -10 -105 -11 -118 -3 -185 42 -197 133 -6 41
-5 42 18 35 13 -4 89 -39 169 -78z m308 3 l27 -1 -25 -14 c-24 -14 -60 -20
-60 -11 0 3 5 17 12 33 9 22 12 24 15 11 3 -12 14 -18 31 -18z m-133 -377 c6
-38 5 -43 -13 -43 -10 0 -40 -3 -65 -6 l-45 -6 -11 52 c-6 29 -10 55 -8 57 2
2 31 7 63 11 66 8 66 8 79 -65z"/>
<path d="M308 2522 c-27 -5 -21 -25 15 -49 51 -35 114 -97 121 -120 15 -49
-56 -150 -125 -177 -37 -15 -43 -15 -75 0 -19 9 -62 44 -95 77 -66 67 -86 68
-68 2 18 -65 70 -154 111 -190 44 -37 112 -60 159 -53 47 7 259 -20 329 -41
93 -29 173 -11 125 29 -26 22 -18 40 18 40 45 0 50 8 26 39 -18 22 -18 27 -6
36 13 9 7 15 -30 35 -63 33 -88 55 -134 112 -27 34 -39 44 -39 31 0 -32 -46
-116 -89 -165 -41 -46 -125 -108 -145 -108 -6 0 9 13 34 29 53 34 128 111 158
162 64 107 21 214 -110 278 -43 21 -147 40 -180 33z m432 -382 c22 -11 40 -23
40 -26 0 -4 -14 -31 -31 -60 l-30 -54 -50 25 -49 25 16 33 c26 50 45 77 56 77
5 0 27 -9 48 -20z"/>
<path d="M1353 2451 l-31 -6 19 -24 c23 -28 49 -21 49 14 0 14 -1 24 -2 24 -2
-1 -17 -4 -35 -8z"/>
<path d="M2669 2431 c-47 -15 -88 -54 -114 -105 -49 -99 -21 -201 72 -263 29
-19 122 -19 158 0 40 20 91 75 104 110 16 41 13 121 -5 166 -29 74 -134 118
-215 92z m90 -48 c23 5 30 2 34 -14 3 -11 15 -23 26 -26 15 -4 21 -13 21 -34
0 -17 6 -32 15 -35 12 -5 12 -9 -1 -29 -8 -12 -12 -30 -8 -39 4 -11 -1 -22
-15 -32 -11 -8 -21 -24 -21 -35 0 -13 -7 -19 -24 -19 -14 0 -31 -7 -40 -15
-12 -12 -20 -13 -41 -3 -19 9 -28 9 -37 0 -9 -9 -14 -6 -22 11 -7 12 -22 23
-34 25 -18 3 -21 8 -17 23 4 13 0 28 -10 39 -13 15 -14 22 -5 40 6 12 9 33 6
46 -5 18 -2 24 9 24 9 0 21 13 28 28 7 16 17 27 23 25 6 -2 22 5 35 16 17 14
28 16 37 9 6 -6 25 -8 41 -5z"/>
<path d="M1802 2309 c-60 -12 -141 -50 -183 -87 -47 -41 -98 -139 -106 -202
-3 -27 -7 -50 -9 -50 -2 0 -22 18 -44 40 -114 114 -306 98 -444 -36 -130 -126
-134 -365 -9 -504 74 -82 155 -127 523 -287 107 -47 209 -93 226 -104 l30 -18
171 342 c202 402 216 440 216 557 0 172 -96 305 -249 345 -64 16 -61 16 -122
4z m-132 -349 c0 -11 -7 -23 -15 -26 -13 -5 -13 -10 3 -38 22 -39 21 -53 -3
-91 -28 -42 -26 -121 4 -163 21 -31 78 -69 87 -59 3 2 -9 10 -26 17 -32 13
-70 58 -70 82 0 7 7 -1 16 -18 17 -35 78 -73 120 -75 l29 -1 -30 -8 c-22 -6
-24 -8 -9 -9 66 -4 136 48 154 115 32 113 -73 215 -188 183 -25 -7 -41 -14
-34 -17 7 -2 10 -8 6 -13 -3 -5 20 -34 51 -65 30 -30 53 -60 50 -65 -10 -15
-35 -10 -42 9 -7 20 -73 92 -85 92 -4 0 -14 -12 -22 -27 -20 -37 -20 -20 0 18
15 30 16 30 35 13 26 -23 24 -6 -2 22 l-21 22 30 16 c46 24 122 21 163 -7 108
-73 107 -211 -1 -285 -30 -20 -44 -23 -97 -20 -53 3 -68 9 -94 33 -17 17 -37
42 -45 57 -21 40 -18 117 7 157 11 18 18 35 15 38 -2 3 -14 -12 -26 -34 -12
-21 -18 -29 -14 -18 3 11 8 29 11 40 4 17 3 18 -7 5 -10 -13 -11 -12 -6 4 4
11 2 23 -5 26 -6 5 -2 9 11 13 18 4 20 2 14 -16 -6 -21 -5 -21 12 -5 29 29 6
42 -46 27 -30 -9 -37 -15 -25 -19 10 -4 -17 -17 -75 -35 -50 -16 -94 -33 -96
-37 -3 -5 15 -35 40 -68 25 -33 46 -65 46 -70 0 -6 7 -10 16 -10 9 0 30 32 55
85 38 82 59 114 38 59 -5 -15 -7 -29 -4 -32 3 -3 5 1 5 8 0 7 3 11 6 8 3 -3
-9 -33 -25 -67 -26 -50 -29 -64 -20 -79 19 -30 3 -71 -29 -78 -47 -10 -50 -12
-57 -42 -6 -30 -53 -81 -93 -101 -33 -17 -114 -16 -149 3 -43 22 -81 70 -89
112 -21 113 38 199 146 212 48 6 54 10 63 37 7 21 7 30 -2 33 -24 8 -11 31 15
26 27 -5 244 62 244 75 0 4 -6 13 -12 20 -9 10 -10 15 -2 18 6 2 20 10 30 18
27 20 44 18 44 -5z m-303 -27 c2 -6 -5 -14 -16 -18 -14 -4 -20 -14 -19 -30 1
-13 6 -23 11 -22 5 1 11 -3 14 -10 2 -6 -3 -10 -13 -9 -10 2 -20 8 -22 14 -2
7 -21 15 -43 18 -54 9 -49 28 14 52 56 21 69 22 74 5z m469 -78 c19 -8 41 -21
50 -29 19 -19 44 -80 43 -103 0 -10 -7 2 -14 27 -18 58 -52 89 -112 106 -26 7
-38 13 -25 13 12 1 38 -6 58 -14z m-189 -142 c-3 -10 -5 -4 -5 12 0 17 2 24 5
18 2 -7 2 -21 0 -30z m258 -62 c-8 -17 -29 -37 -45 -46 -43 -22 -48 -18 -9 8
19 12 41 36 49 54 8 17 16 27 18 23 2 -5 -4 -22 -13 -39z m-367 -249 c-2 -9
-11 -18 -21 -20 -13 -3 -17 3 -17 28 0 28 2 30 21 20 11 -6 19 -19 17 -28z
m80 26 c15 5 15 4 0 -12 -10 -9 -18 -22 -18 -27 0 -5 -4 -9 -8 -9 -5 0 -6 15
-4 33 3 17 7 27 9 20 2 -7 12 -9 21 -5z m114 -18 c3 -16 1 -30 -4 -30 -4 0 -8
14 -8 30 0 17 2 30 4 30 2 0 6 -13 8 -30z m-162 -11 c0 -10 -3 -19 -7 -19 -5
0 -8 11 -8 24 0 13 3 22 8 19 4 -2 7 -13 7 -24z m107 15 c8 -21 -13 -42 -28
-27 -13 13 -5 43 11 43 6 0 13 -7 17 -16z m110 0 c8 -21 -13 -42 -28 -27 -13
13 -5 43 11 43 6 0 13 -7 17 -16z m34 -1 c1 -17 2 -17 6 0 2 9 9 17 14 17 4 0
4 -11 -3 -25 -6 -13 -14 -22 -18 -20 -12 7 -19 45 -9 45 5 0 10 -8 10 -17z
m74 6 c4 -6 4 -13 0 -17 -3 -3 -10 0 -15 8 -8 13 -10 12 -10 -2 0 -9 6 -19 13
-21 7 -3 5 -6 -5 -6 -11 -1 -18 6 -18 17 0 30 22 43 35 21z m-270 -29 c3 -5 1
-10 -4 -10 -6 0 -11 5 -11 10 0 6 2 10 4 10 3 0 8 -4 11 -10z"/>
<path d="M1610 1935 c0 -8 5 -15 11 -15 5 0 8 4 5 9 -4 5 0 12 6 14 8 3 6 6
-4 6 -10 1 -18 -6 -18 -14z"/>
<path d="M1466 1844 c-39 -13 -79 -24 -89 -24 -18 0 -18 -1 -3 -25 9 -14 12
-25 6 -25 -5 0 -10 -8 -10 -18 0 -16 21 -32 55 -42 6 -2 15 -10 22 -19 29 -38
10 6 -22 50 -19 27 -35 53 -35 58 0 5 39 23 88 39 48 17 80 30 72 30 -8 0 -46
-10 -84 -24z m-38 -129 c-3 -3 -13 7 -23 22 l-17 28 23 -22 c12 -12 20 -25 17
-28z"/>
<path d="M1720 1796 c0 -2 8 -10 18 -17 15 -13 16 -12 3 4 -13 16 -21 21 -21
13z"/>
<path d="M1562 1715 c-30 -62 -27 -71 4 -12 14 27 24 51 22 53 -3 2 -14 -17
-26 -41z"/>
<path d="M1244 1711 c-80 -36 -113 -144 -68 -222 28 -50 100 -83 160 -74 52 7
107 50 123 95 l10 30 -90 0 c-82 0 -89 1 -89 20 0 11 4 20 9 20 5 0 14 21 20
48 7 26 14 55 17 65 12 40 -98 8 -136 -41 -11 -13 -20 -20 -20 -14 0 20 70 71
107 77 54 9 62 13 28 14 -16 0 -48 -8 -71 -18z m-67 -113 c-3 -8 -6 -5 -6 6
-1 11 2 17 5 13 3 -3 4 -12 1 -19z m257 -113 c-18 -27 -72 -61 -82 -51 -3 3 0
6 6 6 18 0 82 61 83 79 0 9 3 11 5 4 3 -6 -2 -24 -12 -38z m-149 -50 c58 -10
67 -16 16 -11 -48 5 -85 27 -110 66 -9 15 -2 11 20 -12 24 -25 47 -38 74 -43z"/>
<path d="M1360 1715 c0 -2 13 -11 30 -20 16 -8 35 -25 41 -38 10 -18 5 -16
-25 11 -20 17 -40 32 -45 32 -5 0 -11 -15 -14 -32 -4 -18 -9 -43 -13 -55 l-6
-23 48 17 c27 8 56 22 64 30 13 12 11 18 -22 49 -34 30 -58 43 -58 29z"/>
<path d="M1480 1606 c0 -40 11 -50 44 -42 51 13 38 76 -14 76 -27 0 -30 -3
-30 -34z"/>
<path d="M1392 1599 c-69 -22 -80 -37 -14 -20 24 7 49 8 63 3 20 -8 18 -10
-20 -16 -24 -4 -41 -9 -39 -12 9 -8 88 8 88 18 0 6 -9 12 -20 15 -19 5 -20 6
-3 19 23 17 20 17 -55 -7z"/>
<path d="M1303 1921 c-53 -21 -63 -31 -31 -31 14 0 31 7 38 15 7 8 18 15 26
15 7 0 16 5 19 10 8 13 -1 11 -52 -9z"/>
<path d="M1510 1405 c0 -8 5 -15 10 -15 6 0 10 7 10 15 0 8 -4 15 -10 15 -5 0
-10 -7 -10 -15z"/>
<path d="M1650 1405 c0 -8 5 -15 10 -15 6 0 10 7 10 15 0 8 -4 15 -10 15 -5 0
-10 -7 -10 -15z"/>
<path d="M1760 1405 c0 -8 5 -15 10 -15 6 0 10 7 10 15 0 8 -4 15 -10 15 -5 0
-10 -7 -10 -15z"/>
<path d="M2025 2304 c-17 -13 -18 -16 -5 -24 24 -15 30 -12 30 15 0 29 1 29
-25 9z"/>
<path d="M2465 2265 c-33 -24 -105 -64 -160 -89 -74 -34 -93 -46 -71 -46 23 0
27 -3 21 -17 -20 -49 -19 -53 19 -53 39 0 48 -18 21 -40 -27 -22 -17 -38 28
-42 28 -3 54 1 77 13 19 10 71 26 115 35 44 9 85 18 91 19 7 2 -8 24 -32 49
-48 50 -59 88 -52 167 3 27 5 49 4 49 -1 -1 -28 -21 -61 -45z m-16 -140 c12
-31 21 -58 21 -60 0 -5 -89 -45 -100 -45 -8 0 -45 118 -39 124 7 7 74 34 86
35 6 1 21 -24 32 -54z"/>
<path d="M178 1964 c-67 -34 -101 -89 -106 -168 -2 -49 2 -68 20 -100 66 -113
239 -112 322 3 28 39 31 50 31 115 0 65 -3 77 -29 110 -53 70 -150 86 -238 40z
m81 -23 c8 -5 24 -6 36 -1 16 6 24 3 33 -11 7 -10 23 -19 36 -19 19 0 23 -4
19 -19 -3 -11 4 -28 16 -40 13 -13 16 -23 10 -27 -6 -3 -9 -22 -7 -40 3 -24 0
-34 -10 -34 -7 0 -19 -13 -25 -30 -7 -18 -19 -30 -29 -30 -10 0 -26 -9 -35
-19 -13 -16 -21 -18 -36 -9 -14 7 -27 7 -43 -1 -19 -8 -24 -7 -29 9 -4 13 -15
20 -31 20 -18 0 -24 5 -24 22 0 12 -7 29 -16 39 -12 14 -13 22 -4 39 6 11 8
29 5 40 -4 13 1 22 15 30 11 6 20 21 20 34 0 19 4 23 19 19 11 -3 27 3 38 15
21 24 24 25 42 13z"/>
<path d="M2705 1950 c-60 -33 -82 -57 -120 -132 -82 -165 -62 -296 52 -344 41
-18 187 -20 241 -4 40 13 70 35 60 45 -3 3 -45 17 -94 31 -54 15 -96 33 -106
46 -45 52 0 203 69 236 34 16 37 16 134 -18 54 -18 101 -31 105 -27 19 18 -81
118 -154 154 -74 36 -136 40 -187 13z"/>
<path d="M435 1922 c42 -98 40 -158 -8 -224 l-29 -41 33 7 c85 18 158 25 197
20 50 -7 122 12 122 33 0 7 -11 19 -25 25 -34 15 -31 33 7 44 41 12 45 27 12
42 -33 16 -27 33 17 46 32 10 31 11 -31 13 -91 4 -214 22 -262 39 -37 13 -40
13 -33 -4z m235 -109 c0 -87 -5 -93 -68 -93 l-55 0 7 53 c3 28 6 60 6 70 0 14
9 17 55 17 l55 0 0 -47z"/>
<path d="M2520 1884 c-58 -18 -117 -33 -132 -33 -37 -1 -58 -11 -58 -27 0 -9
20 -15 61 -20 l61 -7 -6 -45 c-3 -25 -6 -53 -6 -63 0 -16 -8 -19 -51 -19 -75
0 -63 -25 30 -61 41 -16 79 -33 85 -39 20 -20 26 -10 20 34 -10 72 36 217 92
294 9 12 15 21 13 21 -2 -1 -51 -16 -109 -35z"/>
<path d="M357 1495 c-56 -15 -108 -48 -154 -95 -33 -34 -44 -66 -20 -57 7 3
55 11 106 18 66 9 97 10 109 2 69 -43 81 -217 19 -258 -12 -8 -65 -19 -117
-25 -52 -7 -97 -14 -99 -16 -26 -25 118 -77 214 -78 48 0 70 6 108 28 26 15
56 39 66 53 51 64 53 245 4 342 -48 96 -113 120 -236 86z"/>
<path d="M592 1440 c43 -70 63 -224 39 -307 -9 -30 -4 -27 62 38 40 39 92 85
115 101 53 37 45 53 -19 39 -24 -6 -47 -7 -50 -3 -7 8 -39 101 -39 113 0 4 19
14 41 23 62 25 38 37 -78 39 l-99 2 28 -45z"/>
<path d="M2283 1414 c-7 -3 -13 -12 -13 -20 0 -11 4 -12 18 -3 14 9 27 7 61
-10 47 -24 47 -26 6 -90 -27 -43 -35 -47 -65 -31 -10 5 -33 7 -50 4 l-31 -7
52 -28 c29 -16 76 -47 104 -68 l53 -40 4 59 c5 71 42 133 93 157 19 9 35 19
35 22 0 8 -174 52 -220 57 -19 2 -41 1 -47 -2z"/>
<path d="M2565 1349 c-129 -48 -177 -206 -92 -297 93 -100 269 -73 334 52 37
71 7 177 -62 225 -39 27 -133 37 -180 20z m117 -47 c7 -7 22 -12 35 -12 16 0
23 -6 23 -19 0 -11 8 -26 18 -33 11 -9 17 -27 17 -53 0 -25 -7 -47 -17 -57
-10 -10 -18 -27 -18 -38 0 -11 -3 -19 -7 -19 -20 3 -34 -3 -50 -20 -12 -13
-23 -17 -32 -11 -8 5 -25 4 -40 -1 -19 -8 -27 -6 -33 6 -5 8 -22 15 -39 15
-17 0 -28 4 -24 10 9 14 -13 50 -31 50 -12 0 -13 4 -3 21 8 15 8 28 1 43 -8
18 -6 25 9 34 10 7 19 23 19 37 0 20 5 25 25 25 13 0 29 8 34 18 11 20 93 24
113 4z"/>
<path d="M2230 1325 c-8 -9 -8 -15 -2 -15 12 0 26 19 19 26 -2 2 -10 -2 -17
-11z"/>
<path d="M995 1110 c-3 -5 -14 -10 -23 -11 -9 0 -53 -47 -97 -105 -72 -95
-100 -124 -185 -193 l-25 -20 25 -1 c73 -1 162 -81 176 -156 6 -34 6 -34 48
49 22 45 82 133 131 195 50 63 97 123 105 135 15 20 15 21 -12 3 -20 -13 -27
-14 -30 -4 -3 8 -14 2 -32 -19 -31 -37 -64 -42 -89 -15 -24 27 -21 70 8 104
14 16 25 34 25 39 0 12 -17 12 -25 -1z m-66 -221 c48 -43 48 -50 1 -107 l-20
-24 -27 20 c-16 11 -38 31 -51 44 l-22 24 32 42 c18 23 35 42 38 42 3 -1 25
-19 49 -41z"/>
<path d="M1970 1069 c0 -5 5 -7 10 -4 6 3 10 8 10 11 0 2 -4 4 -10 4 -5 0 -10
-5 -10 -11z"/>
<path d="M2050 1071 c0 -6 -7 -11 -16 -11 -11 0 -9 -8 11 -34 l26 -34 -49 -31
c-27 -17 -54 -31 -60 -31 -18 0 -65 68 -58 85 3 9 0 15 -9 15 -20 0 -17 -62 6
-128 10 -29 19 -68 19 -87 0 -19 3 -35 6 -35 3 0 17 14 31 30 45 54 155 100
263 109 l65 6 -50 29 c-27 16 -75 48 -105 71 -70 53 -80 59 -80 46z"/>
<path d="M1245 924 c-17 -65 -82 -176 -112 -192 -10 -6 4 -11 44 -14 76 -7
162 -51 238 -120 50 -46 58 -49 52 -28 -21 84 -29 213 -18 285 6 42 11 80 11
85 0 18 -30 10 -42 -10 -18 -29 -37 -25 -49 10 -13 35 -20 37 -44 10 -25 -27
-45 -25 -45 4 0 49 -18 34 -35 -30z m111 -48 l52 -17 -9 -42 c-16 -70 -12 -68
-79 -45 l-62 20 7 37 c10 58 16 73 28 68 7 -2 35 -12 63 -21z"/>
<path d="M2143 895 c-122 -33 -205 -98 -219 -171 -9 -46 16 -128 51 -168 14
-16 25 -32 25 -36 0 -4 21 -24 47 -44 45 -35 88 -54 99 -43 3 2 -11 43 -31 90
-41 100 -43 126 -12 155 58 54 189 81 227 47 10 -9 33 -61 51 -115 19 -55 37
-100 41 -100 16 0 30 45 35 114 10 127 -41 238 -124 272 -41 18 -123 17 -190
-1z"/>
<path d="M603 751 c-143 -65 -145 -287 -3 -359 89 -45 184 -15 232 73 61 111
18 243 -94 290 -49 20 -84 19 -135 -4z m119 -46 c9 4 21 -4 32 -19 9 -15 24
-26 32 -26 10 0 14 -6 11 -14 -3 -7 1 -25 8 -40 10 -19 11 -34 5 -51 -5 -14
-7 -31 -4 -39 3 -8 -3 -19 -15 -26 -12 -6 -21 -20 -21 -30 0 -15 -7 -20 -30
-20 -17 0 -33 -7 -39 -17 -8 -14 -12 -15 -25 -4 -9 7 -27 11 -40 9 -18 -4 -26
0 -29 14 -3 11 -15 22 -26 25 -14 4 -21 13 -21 31 0 14 -8 34 -17 44 -14 16
-15 21 -4 28 9 5 12 19 9 39 -3 23 0 32 14 37 10 3 21 16 24 30 4 17 13 24 29
24 12 0 28 7 35 15 10 12 15 12 35 -1 12 -8 29 -12 37 -9z"/>
<path d="M1094 696 c-39 -18 -78 -68 -98 -126 -46 -141 -13 -305 39 -189 33
71 74 129 99 139 51 19 162 -37 200 -101 22 -37 15 -60 -49 -165 -25 -41 -45
-77 -45 -79 0 -10 32 -4 63 11 92 47 172 146 183 227 6 38 2 56 -20 102 -62
125 -271 227 -372 181z"/>
<path d="M1675 591 c-93 -43 -129 -135 -89 -229 35 -84 99 -125 196 -126 59
-1 70 2 104 29 70 57 91 134 59 213 -22 51 -52 81 -110 108 -60 29 -106 30
-160 5z m151 -51 c11 0 26 -13 36 -30 9 -17 23 -30 31 -30 10 0 13 -8 9 -25
-2 -14 1 -32 8 -40 10 -13 10 -19 -5 -34 -11 -13 -14 -27 -10 -40 5 -17 2 -21
-14 -21 -11 0 -26 -9 -35 -21 -10 -15 -20 -19 -35 -14 -11 3 -29 1 -40 -4 -14
-8 -22 -7 -31 4 -7 8 -23 15 -36 15 -14 0 -25 8 -29 21 -4 11 -17 25 -29 31
-17 7 -22 16 -18 34 2 13 -2 31 -9 40 -11 13 -10 17 4 25 10 6 17 22 17 39 0
23 5 30 19 30 11 0 22 9 26 19 5 16 12 19 39 14 20 -3 36 -1 41 7 5 8 12 7 24
-4 10 -9 26 -16 37 -16z"/>
</g>
</svg>
